<svg id="Layer_1" data-name="Layer 1" xmlns="http://www.w3.org/2000/svg" viewBox="0 0 190.58 199.14"><defs><style>.cls-1{fill:#fff;}.cls-2{fill:#4b4b4b;}</style></defs><circle class="cls-1" cx="95.35" cy="100.42" r="87.63"/><path class="cls-2" d="M131.14,13.88a88.58,88.58,0,0,0-71,0,90.71,90.71,0,0,0-28.95,20.2A94.15,94.15,0,0,0,11.73,64a97.43,97.43,0,0,0,0,73.22,94.22,94.22,0,0,0,19.48,29.92,90.71,90.71,0,0,0,28.95,20.2,88.58,88.58,0,0,0,71,0,90.67,90.67,0,0,0,28.94-20.2,94.08,94.08,0,0,0,19.49-29.92,97.43,97.43,0,0,0,0-73.22,94,94,0,0,0-19.49-29.93A90.67,90.67,0,0,0,131.14,13.88ZM97.19,176.54,75.65,152.15l1.17-1,20.43,23.14,22-22.4,1.12,1.06ZM71.65,81.67,82.27,84c15.53,1.94,27.78-9.31,27.78-9.31l7.36-7.75c8.58,5.81,7.35,29.47,7.35,29.47l.33,0-.64,7.57v.06c-3.49,17-14.55,29.54-27.62,29.54a21.44,21.44,0,0,1-11-3.16l-6.85-5.79c-4.81-5.48-8.37-13.12-10-21.87l-.41-2.62q-.12-.91-.21-1.83L70,98C67.56,91.76,71.65,81.67,71.65,81.67ZM85,145.36a17.45,17.45,0,0,0,.92-9.76l1.17,1,5.2.86h4l.63,0h6.83l5.21-.9.74-.68c-.67,5-.22,11.67,5.73,14.71L97.22,167.74,81.58,149.52A10.33,10.33,0,0,0,85,145.36Zm65,15.66c-9.76-6.35-20.56-9.78-27.18-11.87-1.94-.62-3.61-1.15-4.78-1.59-8.12-3.11-3.22-16.58-3.18-16.72l.46-1.23c5.48-5.17,9.76-12.56,12.14-21.23l.31.1a4.64,4.64,0,0,0,.65.11l1.85.15a4.35,4.35,0,0,0,3.12-1,4.21,4.21,0,0,0,1.5-2.87l1.5-17.57a4.25,4.25,0,0,0-3-4.38c2.14-17.62.53-45.68-30.62-48.58-45.76-4.27-40,20.94-40,20.94C51.8,63.93,53,76.21,56.3,85.64a4.25,4.25,0,0,0-.23,2.16l2.76,17.42a4.29,4.29,0,0,0,4.22,3.57,4.89,4.89,0,0,0,.66-.05l1.84-.29a4.2,4.2,0,0,0,.7-.17c2.73,10,8,18.36,14.73,23.52.91,2.71,2.15,8.23.43,12a7,7,0,0,1-4.28,3.75c-1.27.45-3.09,1-5.2,1.59-7.34,2.14-19.4,5.66-30.15,12.28A83.82,83.82,0,0,1,16,100.62C16,55.07,51.73,18,95.65,18s79.66,37.06,79.66,82.61A83.84,83.84,0,0,1,149.93,161Zm-21.8-55.64a59.11,59.11,0,0,0,1.2-8.35l1.15.16a87.41,87.41,0,0,0,2.39-11,1.1,1.1,0,0,1,.35.89l-1.5,17.57a1.14,1.14,0,0,1-.41.78,1.15,1.15,0,0,1-.85.27l-1.85-.15A1.17,1.17,0,0,1,128.13,105.38Zm-62.62-.12a1.17,1.17,0,0,1-.44.16l-1.84.28a1.16,1.16,0,0,1-1.33-1L60.25,94.34a50.91,50.91,0,0,0,3.23,5.17l1.06-.25A57.74,57.74,0,0,0,65.51,105.26Z"/></svg>