<svg xmlns="http://www.w3.org/2000/svg" xmlns:xlink="http://www.w3.org/1999/xlink" width="180" height="180" viewBox="0 0 180 180">
  <defs>
    <clipPath id="clip-path">
      <circle id="Ellipse_6" data-name="Ellipse 6" cx="90" cy="90" r="90" transform="translate(-0.132 0)" fill="none"/>
    </clipPath>
  </defs>
  <g id="Mask_Group_5" data-name="Mask Group 5" transform="translate(0.132)" clip-path="url(#clip-path)">
    <g id="Ellipse_5" data-name="Ellipse 5" transform="translate(-0.132 0)" fill="#fff" stroke="#4b4b4b" stroke-width="8">
      <circle cx="90" cy="90" r="90" stroke="none"/>
      <circle cx="90" cy="90" r="86" fill="none"/>
    </g>
    <g id="https:_icooon-mono.com_11328-_E7_A4_BE_E9_95_B7_E3_81_AE_E3_82_A2_E3_82_A4_E3_82_B3_E3_83_B3_" data-name="https://icooon-mono.com/11328-%E7%A4%BE%E9%95%B7%E3%81%AE%E3%82%A2%E3%82%A4%E3%82%B3%E3%83%B3/" transform="translate(25.687 14.455)">
      <path id="Path_15" data-name="Path 15" d="M178.838,134.911a25.518,25.518,0,0,0-2.629-6.337,25.8,25.8,0,0,0-7.328-7.911,39.936,39.936,0,0,0-6.71-3.865c-3.468-1.618-7.014-2.855-10.3-4.046a59.966,59.966,0,0,1-8.686-3.688l-.265-.152a16.756,16.756,0,0,1-2.285-1.555,9.817,9.817,0,0,1-2.344-2.668,8.576,8.576,0,0,1-1.089-3.453,11.465,11.465,0,0,1-.147-1.878,40.638,40.638,0,0,1,.893-8.053,30.416,30.416,0,0,0,4.1-5.925,64.763,64.763,0,0,0,3.708-8.338,16.117,16.117,0,0,0,7.1-6.175,25.2,25.2,0,0,0,3.247-8.093,11.994,11.994,0,0,0,.314-2.712,12.287,12.287,0,0,0-1.2-5.233,14.359,14.359,0,0,0-1.962-3.026c.4-1.432.873-3.36,1.3-5.621a59.348,59.348,0,0,0,1.079-10.849,39.5,39.5,0,0,0-.726-7.8,27.514,27.514,0,0,0-1.8-5.748,21.421,21.421,0,0,0-5.5-7.582,22.868,22.868,0,0,0-8.676-4.63,29.858,29.858,0,0,0-3.742-3.737,20.748,20.748,0,0,0-3.36-2.285,19.31,19.31,0,0,0-5.341-1.942,27.717,27.717,0,0,0-5.631-.52c-2.668.01-5.478.265-8.573.564-1.167.118-2.153.26-3.006.407-1.27.226-2.227.461-2.987.608a9.641,9.641,0,0,1-1.045.167,6.775,6.775,0,0,1-1.02.069,12.1,12.1,0,0,1-1.78-.147,40.93,40.93,0,0,1-5.945-1.315c-.809-.24-1.506-.481-2.06-.687-.275-.1-.515-.2-.7-.275s-.343-.147-.422-.186A2.807,2.807,0,0,0,92.036,0a3.094,3.094,0,0,0-.785.1c-.186.054-.338.108-.476.162a4.241,4.241,0,0,0-.652.334,9.572,9.572,0,0,0-1.084.731,25.616,25.616,0,0,0-2.109,1.815A34.7,34.7,0,0,0,83.5,6.911a24.086,24.086,0,0,0-1.525,2.2,16.457,16.457,0,0,0-1.2,2.364A62.987,62.987,0,0,0,77.5,22.709a50.981,50.981,0,0,0-.907,9.51,62.9,62.9,0,0,0,1.324,12.158c0,.162.005.319.02.481.02.319.049.648.083.991.054.515.118,1.035.167,1.476.02.221.044.417.054.569.005.073.01.142.01.191l.005.049v.309l.633,2.776A14.731,14.731,0,0,0,76.572,54.5a12.265,12.265,0,0,0-1.359,5.567,12.069,12.069,0,0,0,.309,2.712v-.005a28,28,0,0,0,1.957,5.773,18,18,0,0,0,4.355,5.915,15.949,15.949,0,0,0,4.036,2.58,64.489,64.489,0,0,0,3.708,8.328,30.9,30.9,0,0,0,4.1,5.925,39.774,39.774,0,0,1,.888,8.068,11.4,11.4,0,0,1-.142,1.874,9.123,9.123,0,0,1-.618,2.5,8.6,8.6,0,0,1-2.021,2.918,15.665,15.665,0,0,1-3.4,2.447l-1.054.559c-1.123.569-2.369,1.108-3.693,1.633-3.051,1.221-6.523,2.364-10.05,3.747a57.5,57.5,0,0,0-7.867,3.7,32.02,32.02,0,0,0-5.449,3.919,24.658,24.658,0,0,0-6.234,8.652,31.628,31.628,0,0,0-2.359,12.634,5.385,5.385,0,0,0,.392,1.967,7.118,7.118,0,0,0,.912,1.6,12.373,12.373,0,0,0,2.7,2.57,32.808,32.808,0,0,0,7.828,3.953,98.376,98.376,0,0,0,20.305,4.718,233.346,233.346,0,0,0,32,1.961,244.349,244.349,0,0,0,28.442-1.5,134.852,134.852,0,0,0,15.425-2.658,73.445,73.445,0,0,0,8.509-2.55,40.939,40.939,0,0,0,4.8-2.109,23.184,23.184,0,0,0,2.766-1.677,12.707,12.707,0,0,0,2.943-2.766,7.488,7.488,0,0,0,.9-1.633,5.326,5.326,0,0,0,.353-1.878A34.689,34.689,0,0,0,178.838,134.911ZM92.541,27.358c14.434,3.154,42.645-2.874,42.645-2.874a25.941,25.941,0,0,0,5.116,13.2,29.7,29.7,0,0,1,3.786,7.587c-.211-.078-.829-.083-1.432-.162a.9.9,0,0,1-.839-.853c-.167-.775-.893-1.01-2.07-1.167a53.669,53.669,0,0,0-9.333-.309c-11.163.544-10.334,1.56-14.719,1.56s-3.551-1.015-14.709-1.56a53.77,53.77,0,0,0-9.343.309c-1.167.157-1.9.392-2.07,1.167a.893.893,0,0,1-.834.853c-.2.024-.392.044-.574.059C89.844,40.733,92.159,35.161,92.541,27.358Zm47.04,23.66c-.005.059-.044,6.455-4.4,8.647a11.729,11.729,0,0,1-5.218,1.158,10.475,10.475,0,0,1-5.273-1.3,6.96,6.96,0,0,1-3.217-4.149c-.123-.422-.24-.844-.353-1.256-.348-1.241-1.27-4.694.7-6.224,1.265-.986,5.2-1.614,8.966-1.614,3.433,0,6.925.471,7.95,1.54A4.321,4.321,0,0,1,139.581,51.018Zm-29.31,3.1c-.113.412-.23.834-.353,1.256a6.925,6.925,0,0,1-3.217,4.149,10.469,10.469,0,0,1-5.267,1.3,11.76,11.76,0,0,1-5.219-1.158c-4.355-2.192-4.4-8.588-4.4-8.647a4.343,4.343,0,0,1,.853-3.2c1.02-1.069,4.517-1.54,7.946-1.54,3.767,0,7.7.628,8.97,1.614C111.547,49.424,110.62,52.877,110.271,54.117Zm.26,81.063L93.5,112.095c.221-.152.432-.314.648-.481a16.865,16.865,0,0,0,2.565-2.492l13.723,6.263-2.933,4.8,4.541,4.733ZM98.648,105.949a13.913,13.913,0,0,0,1.089-4.169,16.36,16.36,0,0,0,.177-2.418,46.306,46.306,0,0,0-1.158-9.868l-.162-.716-.51-.53a24.361,24.361,0,0,1-3.791-5.366,61.65,61.65,0,0,1-3.787-8.706l-.422-1.167-1.177-.422a10.865,10.865,0,0,1-5.63-4.532,20.169,20.169,0,0,1-2.541-6.445,6.817,6.817,0,0,1-.177-1.545,7.024,7.024,0,0,1,.794-3.212,9.439,9.439,0,0,1,1.756-2.374,42.776,42.776,0,0,0,2.609,3.634c1.207,1.182,1.378-1.6.809-4.733a11.476,11.476,0,0,1,.687-5.562V48.9a.824.824,0,0,0,.79.736c.456,0,.79.235.79.544,0,.544.034,8.264,5.905,11.384s14.63,1.947,17.612-4.993c1.344-3.134,1.359-6.194,3.384-6.194s2.04,3.06,3.389,6.194c2.977,6.94,11.742,8.112,17.608,4.993s5.91-10.839,5.91-11.384c0-.309.329-.544.785-.544a.82.82,0,0,0,.79-.736V45.5a89.687,89.687,0,0,1,3.291,12.217s.618-1.158,1.545-2.707a8.811,8.811,0,0,1,1.349,2.04,6.969,6.969,0,0,1,.7,3.012,6.83,6.83,0,0,1-.177,1.55,22.637,22.637,0,0,1-1.584,4.7,12.851,12.851,0,0,1-3.08,4.228,10.74,10.74,0,0,1-3.5,2.045l-1.182.422-.417,1.162a62.685,62.685,0,0,1-3.786,8.72,24.765,24.765,0,0,1-3.8,5.361l-.51.535-.162.711a46.551,46.551,0,0,0-1.158,9.858,17.925,17.925,0,0,0,.177,2.423,14.261,14.261,0,0,0,.937,3.821l.073.162-16.244,8.4Zm23.792,30.33-1.672-11.359,4.532-4.733-2.943-4.821,12.419-6.42a14.75,14.75,0,0,0,1.094,1.236,19.363,19.363,0,0,0,2.3,1.952Z" transform="translate(-51.671 0)" fill="#4b4b4b"/>
      <path id="Path_16" data-name="Path 16" d="M230.951,215.527a14.654,14.654,0,0,1-5.493-4.895c-2.776-4.292-8.544-9.284-15.807-5.321-7.269-3.963-13.027,1.03-15.812,5.321a14.63,14.63,0,0,1-5.478,4.895s4.238,4.836,12.722,1.982c6.881-2.31,8.568-6.95,8.568-6.95s1.687,4.64,8.568,6.95C226.7,220.363,230.951,215.527,230.951,215.527Z" transform="translate(-145.454 -139.874)" fill="#4b4b4b"/>
    </g>
  </g>
</svg>
