<svg xmlns="http://www.w3.org/2000/svg" width="14" height="16" viewBox="0 0 14 16">
  <path id="Icon_awesome-book" data-name="Icon awesome-book" d="M14,11.25V.75A.748.748,0,0,0,13.25,0H3A3,3,0,0,0,0,3V13a3,3,0,0,0,3,3H13.25a.748.748,0,0,0,.75-.75v-.5a.756.756,0,0,0-.278-.584,6.969,6.969,0,0,1,0-2.334A.745.745,0,0,0,14,11.25ZM4,4.188A.188.188,0,0,1,4.188,4h6.625A.188.188,0,0,1,11,4.188v.625A.188.188,0,0,1,10.813,5H4.188A.188.188,0,0,1,4,4.813Zm0,2A.188.188,0,0,1,4.188,6h6.625A.188.188,0,0,1,11,6.188v.625A.188.188,0,0,1,10.813,7H4.188A.188.188,0,0,1,4,6.813ZM11.919,14H3a1,1,0,0,1,0-2h8.919A11.25,11.25,0,0,0,11.919,14Z" fill="#fff"/>
</svg>
