<svg xmlns="http://www.w3.org/2000/svg" xmlns:xlink="http://www.w3.org/1999/xlink" width="180" height="180" viewBox="0 0 180 180">
  <defs>
    <clipPath id="clip-path">
      <circle id="Ellipse_4" data-name="Ellipse 4" cx="90" cy="90" r="90" transform="translate(0.132 0)" fill="none"/>
    </clipPath>
  </defs>
  <g id="Mask_Group_2" data-name="Mask Group 2" transform="translate(-0.132 0)" clip-path="url(#clip-path)">
    <g id="Ellipse_3" data-name="Ellipse 3" transform="translate(0.132 0)" fill="#fff" stroke="#4b4b4b" stroke-width="8">
      <circle cx="90" cy="90" r="90" stroke="none"/>
      <circle cx="90" cy="90" r="86" fill="none"/>
    </g>
    <g id="サラリーマン" transform="translate(27.347 14.464)">
      <path id="Path_3" data-name="Path 3" d="M180.236,134.9a25.063,25.063,0,0,0-9.9-14.262,40.553,40.553,0,0,0-6.646-3.845c-3.433-1.609-6.945-2.845-10.182-4.041a53.859,53.859,0,0,1-8.5-3.722,17.666,17.666,0,0,1-2.261-1.555,9.82,9.82,0,0,1-2.29-2.668,8.543,8.543,0,0,1-1.069-3.443,26.457,26.457,0,0,1-.147-2.776,33.358,33.358,0,0,1,.868-7.136,30.892,30.892,0,0,0,4.032-5.92,64.191,64.191,0,0,0,3.639-8.318,15.68,15.68,0,0,0,6.974-6.16,25.455,25.455,0,0,0,3.183-8.078,12.171,12.171,0,0,0-.873-7.926,14.037,14.037,0,0,0-1.923-3.021c.387-1.427.858-3.355,1.275-5.606a60.16,60.16,0,0,0,1.059-10.839,39.8,39.8,0,0,0-.716-7.779,28.259,28.259,0,0,0-1.766-5.734,21.313,21.313,0,0,0-5.41-7.563,22.414,22.414,0,0,0-8.514-4.625,31.2,31.2,0,0,0-4.488-4.429,24.059,24.059,0,0,0-8.127-4.306A29.087,29.087,0,0,0,120.018,0c-1.486,0-2.967.083-4.458.216-1.393.127-2.55.27-3.585.446a24.5,24.5,0,0,0-4.061,1.03c-1.241.427-2.433.927-4,1.54-.594.235-1.368.579-2.31,1.054a40.681,40.681,0,0,0-6.013,3.737A38.55,38.55,0,0,0,85.539,18.961a33.868,33.868,0,0,0-3.585,8.205A36.448,36.448,0,0,0,80.56,37.3a44.583,44.583,0,0,0,.628,7.274c0,.177.01.353.02.52.02.314.054.648.088.991.054.505.113,1.03.157,1.472.024.216.044.412.059.569,0,.073.005.137.01.186v.358l.623,2.771a14.507,14.507,0,0,0-2.271,3.276,12.331,12.331,0,0,0-1.334,5.557,12.194,12.194,0,0,0,.3,2.7,28.035,28.035,0,0,0,1.923,5.763,18.006,18.006,0,0,0,4.277,5.905A15.626,15.626,0,0,0,89,77.213a64.006,64.006,0,0,0,3.639,8.313,30.6,30.6,0,0,0,4.027,5.915,33.649,33.649,0,0,1,.868,7.141,26.334,26.334,0,0,1-.142,2.776,9,9,0,0,1-.608,2.492,8.691,8.691,0,0,1-1.982,2.913,16.088,16.088,0,0,1-3.35,2.447,39.628,39.628,0,0,1-4.64,2.178c-3,1.211-6.405,2.359-9.868,3.733a55.945,55.945,0,0,0-7.73,3.7,31.388,31.388,0,0,0-5.351,3.909,24.444,24.444,0,0,0-6.121,8.642,31.916,31.916,0,0,0-2.315,12.6,5.369,5.369,0,0,0,.387,1.967,7.063,7.063,0,0,0,.893,1.594,12.364,12.364,0,0,0,2.649,2.565,31.993,31.993,0,0,0,7.685,3.948,95.974,95.974,0,0,0,19.937,4.708,225.623,225.623,0,0,0,31.409,1.957,235.44,235.44,0,0,0,27.917-1.506,128.243,128.243,0,0,0,15.14-2.649,71.984,71.984,0,0,0,8.348-2.545,39.725,39.725,0,0,0,4.713-2.1,24.089,24.089,0,0,0,2.717-1.677,12.474,12.474,0,0,0,2.884-2.766,7.344,7.344,0,0,0,.888-1.623,5.425,5.425,0,0,0,.348-1.874A35.063,35.063,0,0,0,180.236,134.9Zm-67.33,2.369L94.377,113.576a22.613,22.613,0,0,0,2.742-1.864,16.1,16.1,0,0,0,2.516-2.492l13.473,6.253-2.874,4.8,4.454,4.723Zm-11.364-31.208a13.982,13.982,0,0,0,1.064-4.159,31.461,31.461,0,0,0,.177-3.316,40.941,40.941,0,0,0-1.133-8.946l-.162-.711-.5-.53a24.774,24.774,0,0,1-3.727-5.351,63.733,63.733,0,0,1-3.713-8.691l-.412-1.162-1.158-.427a10.768,10.768,0,0,1-2.335-1.177,11.159,11.159,0,0,1-3.188-3.345,20.269,20.269,0,0,1-2.5-6.425,6.989,6.989,0,0,1,.613-4.757A9.185,9.185,0,0,1,86.294,54.7a37.2,37.2,0,0,0,2.565,3.625c1.177,1.182.809.819,1.2.235,0,0,1.339-1.883,8.421-15.66,14.169,3.149,38.928-18.132,38.928-18.132a26.137,26.137,0,0,0,5.022,13.169c4.478,5.974,7.033,20,7.033,20s.608-1.153,1.515-2.7a8.805,8.805,0,0,1,1.324,2.031,6.976,6.976,0,0,1,.515,4.556,22.908,22.908,0,0,1-1.56,4.694,12.7,12.7,0,0,1-3.016,4.213,10.51,10.51,0,0,1-3.443,2.045l-1.158.422-.412,1.162a63.331,63.331,0,0,1-3.713,8.7,24.578,24.578,0,0,1-3.733,5.356l-.5.53-.157.716a40.469,40.469,0,0,0-1.138,8.936,32.812,32.812,0,0,0,.172,3.316,14.2,14.2,0,0,0,.922,3.816,1.541,1.541,0,0,0,.069.157l-15.945,8.387Zm23.611,32.066-1.908-13.13,4.458-4.723-2.884-4.816,12.188-6.405a13.676,13.676,0,0,0,1.074,1.241,19.951,19.951,0,0,0,4.1,3.159Z" transform="translate(-55.429 0)" fill="#4b4b4b"/>
    </g>
  </g>
</svg>
