<svg xmlns="http://www.w3.org/2000/svg" xmlns:xlink="http://www.w3.org/1999/xlink" width="181.679" height="31.466" viewBox="0 0 181.679 31.466">
  <defs>
    <linearGradient id="linear-gradient" x1="0.5" y1="-0.956" x2="0.5" y2="0.112" gradientUnits="objectBoundingBox">
      <stop offset="0" stop-color="#5fc3d0"/>
      <stop offset="0.5" stop-color="#72c2a2"/>
      <stop offset="1" stop-color="#7dc37f"/>
    </linearGradient>
    <linearGradient id="linear-gradient-2" x1="0.5" y1="1.055" x2="0.5" y2="2.407" xlink:href="#linear-gradient"/>
    <linearGradient id="linear-gradient-3" x1="0.5" y1="-0.15" x2="0.5" y2="1.524" xlink:href="#linear-gradient"/>
    <linearGradient id="linear-gradient-4" x1="0.5" y1="-0.098" x2="0.5" y2="0.98" xlink:href="#linear-gradient"/>
    <linearGradient id="linear-gradient-5" x1="0.5" y1="-0.416" x2="0.5" y2="0.973" xlink:href="#linear-gradient"/>
    <linearGradient id="linear-gradient-6" x1="0.5" y1="1.45" x2="0.5" y2="3.206" xlink:href="#linear-gradient"/>
    <linearGradient id="linear-gradient-7" x1="0.5" y1="-1.429" x2="0.5" y2="0.041" xlink:href="#linear-gradient"/>
    <linearGradient id="linear-gradient-8" x1="0.5" y1="-0.607" x2="0.5" y2="1.393" xlink:href="#linear-gradient"/>
    <linearGradient id="linear-gradient-9" x1="0.5" y1="-1.802" x2="0.5" y2="0.146" xlink:href="#linear-gradient"/>
    <linearGradient id="linear-gradient-10" x1="0.5" y1="-0.159" x2="0.5" y2="1.601" xlink:href="#linear-gradient"/>
    <linearGradient id="linear-gradient-11" x1="0.5" y1="0.436" x2="0.5" y2="3.14" xlink:href="#linear-gradient"/>
    <linearGradient id="linear-gradient-12" x1="0.5" y1="1.661" x2="0.5" y2="4.224" xlink:href="#linear-gradient"/>
    <linearGradient id="linear-gradient-13" x1="0.5" y1="1.145" x2="0.5" y2="4.658" xlink:href="#linear-gradient"/>
    <linearGradient id="linear-gradient-14" x1="0.5" y1="1.16" x2="0.5" y2="5.182" xlink:href="#linear-gradient"/>
  </defs>
  <g id="Group_1" data-name="Group 1" transform="translate(-1.003 -1.984)">
    <text id="raising_funds" data-name="raising funds" transform="translate(43.683 23.674)" fill="#707070" font-size="22" font-family="AmericanTypewriter, American Typewriter"><tspan x="0" y="0">raising funds</tspan></text>
    <g id="Group_1-2" data-name="Group 1" transform="translate(-19 -18)">
      <path id="Path_1" data-name="Path 1" d="M55.726,76.978a1.762,1.762,0,0,0-1.291-.571,38.735,38.735,0,0,0-7.293.424.485.485,0,0,0-.48.572c.015,1.4.006,2.8.006,4.2s.007,2.8-.006,4.2a.558.558,0,0,0,.416.61A15.8,15.8,0,0,0,62.2,84.343c.481-.358.491-.38.069-.8C60.089,81.356,57.893,79.181,55.726,76.978Z" transform="translate(-17.03 -36.031)" fill="url(#linear-gradient)"/>
      <path id="Path_2" data-name="Path 2" d="M54.369,28.149c-.506.493-.788.893-.385,1.6.183.319.32.482.7.479,1.964-.015,3.929-.007,5.893-.007s3.958-.007,5.937.006a.782.782,0,0,0,.743-.4A8.1,8.1,0,0,0,68.4,26.312a1.479,1.479,0,0,0-.6-1.426c-.374-.307-.39-.33-.628.088a6.4,6.4,0,0,1-1.923,2.083A10.62,10.62,0,0,1,59.63,28.73c-1.18.074-1,.115-1.04-.987-.016-.441.146-.561.574-.573a11.38,11.38,0,0,0,3.736-.659,5.235,5.235,0,0,0,3-2.479c.162-.315.139-.508-.185-.709a17.121,17.121,0,0,0-4.021-1.8.791.791,0,0,0-.916.226C58.657,23.9,56.531,26.041,54.369,28.149Z" transform="translate(-21.584 -0.947)" fill="url(#linear-gradient-2)"/>
      <path id="Path_3" data-name="Path 3" d="M60.161,57.046a16.6,16.6,0,0,0,4.924-1.1,7.913,7.913,0,0,0,4.826-5.425c.12-.437.067-.517-.385-.523-.491-.006-.983.005-1.473,0a.853.853,0,0,0-.623.242,9.563,9.563,0,0,1-2.746,1.782,16.264,16.264,0,0,1-5.363,1.089c-.769.046-.77.033-.773-.735a2.493,2.493,0,0,0,0-.3c-.049-.4.142-.507.526-.524a14.965,14.965,0,0,0,4.095-.63,6.3,6.3,0,0,0,1.849-.843A.714.714,0,0,0,64.526,50c-3.134,0-6.268.015-9.4-.017-.677-.007-1.127.081-1.349.828a.743.743,0,0,0,.188.9c1.593,1.572,3.181,3.151,4.745,4.752A1.617,1.617,0,0,0,60.161,57.046Z" transform="translate(-21.529 -19.161)" fill="url(#linear-gradient-3)"/>
      <path id="Path_4" data-name="Path 4" d="M88.222,50.5c-.068-.242-.125-.479-.461-.472s-.358.265-.415.5a9.4,9.4,0,0,1-5.106,6.522,20.45,20.45,0,0,1-3.768,1.335c.079.017.159.039.239.052a31.984,31.984,0,0,1,8.328,2.43c.511.232.565.21.772-.342A15.735,15.735,0,0,0,88.222,50.5Z" transform="translate(-37.35 -19.191)" fill="url(#linear-gradient-4)"/>
      <path id="Path_5" data-name="Path 5" d="M28.211,57.034a.536.536,0,0,1-.194-.094.433.433,0,0,0-.609.107q-2.891,2.9-5.795,5.788a.544.544,0,0,0-.172.578c.148.591.373,1.153.576,1.725.1.28.246.29.495.174a30.388,30.388,0,0,1,6.109-2.048A.41.41,0,0,0,29,62.79c-.01-.852,0-1.7,0-2.557h0c0-.65-.039-1.3.011-1.949S28.968,57.143,28.211,57.034Z" transform="translate(-0.904 -23.554)" fill="url(#linear-gradient-5)"/>
      <path id="Path_6" data-name="Path 6" d="M47.5,26.659a.734.734,0,0,0,.886-.186c1.983-2,3.979-3.988,5.969-5.981.1-.1.236-.172.255-.328-.054-.1-.152-.083-.232-.091a15.64,15.64,0,0,0-7.275.941.574.574,0,0,0-.439.633c.016,1.228.044,2.457-.009,3.683C46.626,26.016,46.752,26.44,47.5,26.659Z" transform="translate(-17.023 0)" fill="url(#linear-gradient-6)"/>
      <path id="Path_7" data-name="Path 7" d="M31.225,78.952a31.162,31.162,0,0,0-5.277,1.8c-.31.138-.371.269-.186.578a15.943,15.943,0,0,0,5.467,5.5c.4.245.47.2.472-.3,0-1.183,0-2.367,0-3.55,0-1.212-.007-2.425,0-3.637C31.709,78.994,31.616,78.857,31.225,78.952Z" transform="translate(-3.612 -37.65)" fill="url(#linear-gradient-7)"/>
      <path id="Path_8" data-name="Path 8" d="M47.179,62.9a36.836,36.836,0,0,1,5.864-.443c.121,0,.3.068.353-.073s-.115-.215-.2-.3c-1.5-1.5-3.018-2.988-4.5-4.512-.465-.48-.875-.829-1.516-.332a.179.179,0,0,1-.081.028c-.367.052-.441.284-.433.619.018.751.006,1.5.006,2.253h0c0,.766.015,1.532-.006,2.3C46.654,62.824,46.744,62.966,47.179,62.9Z" transform="translate(-17.03 -23.641)" fill="url(#linear-gradient-8)"/>
      <path id="Path_9" data-name="Path 9" d="M85.677,79.751a31.267,31.267,0,0,0-5.7-1.892,23.909,23.909,0,0,0-2.737-.48c.116.154.152.215.2.263q2.83,2.832,5.66,5.665c.223.224.373.189.567-.022a18.8,18.8,0,0,0,2.219-2.925C86.087,80.027,86,79.892,85.677,79.751Z" transform="translate(-36.561 -36.663)" fill="url(#linear-gradient-9)"/>
      <path id="Path_10" data-name="Path 10" d="M25.385,50.722a2.323,2.323,0,0,1-.137-.364.407.407,0,0,0-.47-.341c-.606.007-1.212,0-1.817,0s-1.212,0-1.817,0a.428.428,0,0,0-.487.322,16.672,16.672,0,0,0-.612,6.032c.008.131-.015.328.147.37.128.033.208-.132.3-.221q2.327-2.323,4.651-4.649C25.648,51.362,25.647,51.362,25.385,50.722Z" transform="translate(0 -19.184)" fill="url(#linear-gradient-10)"/>
      <path id="Path_11" data-name="Path 11" d="M42.753,43.953a2.138,2.138,0,0,0-2.227-2.2,2.266,2.266,0,0,0-2.184,2.193,2.168,2.168,0,0,0,2.249,2.188A2.082,2.082,0,0,0,42.753,43.953Z" transform="translate(-11.714 -13.908)" fill="url(#linear-gradient-11)"/>
      <path id="Path_12" data-name="Path 12" d="M34.156,29.792a1.169,1.169,0,0,0,1.739.389c.262-.157.39-.281.384-.578-.013-.562,0-1.124,0-1.686,0-.605-.005-1.21,0-1.815,0-.323-.1-.378-.38-.214a16.566,16.566,0,0,0-2.92,2.213c-.191.176-.2.311-.006.495A11.762,11.762,0,0,1,34.156,29.792Z" transform="translate(-8.193 -3.714)" fill="url(#linear-gradient-12)"/>
      <path id="Path_13" data-name="Path 13" d="M24.417,39.734c.491,0,.982,0,1.473,0h.737c.245,0,.491.005.737,0,.357-.011.984-1.09.819-1.4a.433.433,0,0,0-.081-.1c-.582-.583-1.166-1.163-1.744-1.749-.163-.165-.286-.146-.424.029a14.612,14.612,0,0,0-1.768,2.87C24.027,39.67,24.155,39.736,24.417,39.734Z" transform="translate(-2.622 -10.464)" fill="url(#linear-gradient-13)"/>
      <path id="Path_14" data-name="Path 14" d="M96.835,40.521c.288-.013.421-.116.415-.411-.011-.56.005-1.121-.017-1.68a1.047,1.047,0,0,0-.34-.839c-.142.1-.138.238-.161.36a8.783,8.783,0,0,1-.53,1.726C95.827,40.571,95.832,40.566,96.835,40.521Z" transform="translate(-48.528 -11.248)" fill="url(#linear-gradient-14)"/>
    </g>
  </g>
</svg>
