<svg xmlns="http://www.w3.org/2000/svg" xmlns:xlink="http://www.w3.org/1999/xlink" width="1280" height="935" viewBox="0 0 1280 935">
  <defs>
    <clipPath id="clip-path">
      <rect id="Rectangle_13" data-name="Rectangle 13" width="1280" height="935" transform="translate(0 0.384)" fill="#efea7c"/>
    </clipPath>
  </defs>
  <g id="Mask_Group_3" data-name="Mask Group 3" transform="translate(0 -0.384)" clip-path="url(#clip-path)">
    <g id="Group_6" data-name="Group 6" transform="translate(605.003 410.24)" opacity="0.3">
      <path id="Path_1" data-name="Path 1" d="M252.041,89.062c-8.537-8.259-17.671-12.015-29.253-12.3C167.433,75.46,112.3,77.319,57.542,85.9c-8.038,1.26-10.96,4.6-10.878,12.311.336,30.159.139,60.317.139,90.468s.164,60.317-.131,90.468c-.065,6.968,2.513,10.639,9.437,13.127,53.857,19.4,109.4,26.939,166.653,20.865,64.751-6.867,123.65-28.432,176.074-65.52,10.894-7.707,11.123-8.173,1.563-17.265C350.89,183.318,301.142,136.493,252.041,89.062Z" transform="translate(171.544 362.269)" fill="#fff"/>
      <path id="Path_2" data-name="Path 2" d="M66.862,165.348C55.4,175.963,49,184.58,58.137,199.706c4.142,6.859,7.244,10.374,15.805,10.312,44.51-.327,89.028-.148,133.537-.148,44.845-.008,89.691-.148,134.528.132,7.784.047,12.662-2.465,16.845-8.671,15.56-23.1,22.623-48.605,25.954-75.529,1.637-13.228-3.249-22.561-13.7-30.7-8.471-6.6-8.84-7.108-14.225,1.89-10.894,18.174-25.717,32.966-43.585,44.857-38.125,25.384-82.079,33.332-127.218,36.022-26.732,1.587-22.68,2.465-23.556-21.246-.352-9.5,3.3-12.07,13.014-12.326,28.876-.778,57.426-4.4,84.657-14.185,28.983-10.405,53.3-26.286,67.959-53.372,3.675-6.789,3.143-10.926-4.191-15.258C295.41,44.612,264.913,32.123,232.852,22.7c-8.5-2.5-14.242-1.392-20.757,4.876C164.017,73.822,115.84,119.978,66.862,165.348Z" transform="translate(222.769 -9.941)" fill="#fff"/>
      <path id="Path_3" data-name="Path 3" d="M199.962,202.111c38.387-3.461,75.9-9.5,111.569-23.719,55.993-22.327,93.136-60.76,109.359-116.8,2.726-9.418,1.514-11.121-8.725-11.253-11.132-.14-22.263.109-33.386-.086a19.888,19.888,0,0,0-14.127,5.211C346.1,71.421,325.7,84.611,302.421,93.826c-38.936,15.414-79.869,21.1-121.522,23.455-17.434.988-17.458.7-17.508-15.834a51,51,0,0,0-.049-6.525c-1.1-8.718,3.225-10.919,11.925-11.276,31.414-1.268,62.7-4.129,92.784-13.571,14.422-4.526,28.991-9.068,41.907-18.151-4.011-2.636-7.677-1.563-11.074-1.563-71.021-.086-142.041.327-213.054-.373C70.485,49.833,60.294,51.722,55.253,67.8c-2.7,8.617-2.21,13.228,4.256,19.287,36.1,33.853,72.085,67.837,107.526,102.32C176.488,198.6,185.213,203.449,199.962,202.111Z" transform="translate(222.149 183.296)" fill="#fff"/>
      <path id="Path_4" data-name="Path 4" d="M299.376,60.194c-1.539-5.21-2.832-10.312-10.436-10.164-7.923.156-8.1,5.708-9.4,10.856-15.928,63.63-54.012,110.773-115.694,140.426-27.035,12.987-55.829,20.873-85.377,28.743,1.8.373,3.593.84,5.41,1.112,65.291,9.682,128.43,26.356,188.712,52.323,11.573,4.985,12.793,4.511,17.491-7.357C318.193,205.123,320.894,133.125,299.376,60.194Z" transform="translate(400.098 183.612)" fill="#fff"/>
      <path id="Path_5" data-name="Path 5" d="M175.352,60.673a12.416,12.416,0,0,1-4.4-2.014c-5.4-3.305-9.5-1.789-13.808,2.31Q91.637,123.412,25.838,185.584c-3.88,3.671-5.279,7.209-3.9,12.435,3.348,12.715,8.463,24.831,13.047,37.142,2.243,6.035,5.574,6.245,11.213,3.756,44.4-19.629,90.755-33.783,138.432-44.087,6.392-1.384,8.578-4.269,8.5-10.227-.229-18.353-.082-36.7-.082-55.052h-.057c0-13.991-.884-28.051.246-41.964C194.358,73.73,192.491,63.029,175.352,60.673Z" transform="translate(-9.838 229.895)" fill="#fff"/>
      <path id="Path_6" data-name="Path 6" d="M65.861,163.694c9.184,2.559,13.8,2.014,20.086-4.013C130.882,116.605,176.12,73.825,221.211,30.9c2.21-2.108,5.337-3.694,5.779-7.069-1.228-2.193-3.438-1.781-5.263-1.96-56.607-5.5-111.561.91-164.845,20.251-7.375,2.675-10.051,6.26-9.945,13.625.36,26.433,1,52.906-.2,79.285C46.069,149.867,48.918,158.981,65.861,163.694Z" transform="translate(171.468 -19.984)" fill="#fff"/>
      <path id="Path_7" data-name="Path 7" d="M151.8,79.554A731.726,731.726,0,0,0,32.238,118.4c-7.023,2.963-8.414,5.786-4.223,12.451,30.988,49.258,72.4,88.578,123.871,118.426,9.1,5.281,10.657,4.324,10.69-6.354.065-25.477.016-50.962.016-76.439,0-26.1-.156-52.206.09-78.3C162.764,80.448,160.652,77.509,151.8,79.554Z" transform="translate(20.626 379.437)" fill="#fff"/>
      <path id="Path_8" data-name="Path 8" d="M58.33,184.108A877.631,877.631,0,0,1,191.2,174.565c2.75.008,6.728,1.454,8-1.579,1.252-2.978-2.595-4.627-4.559-6.494-33.984-32.359-68.393-64.33-101.878-97.148C82.222,59.009,72.932,51.489,58.412,62.206a4.2,4.2,0,0,1-1.842.607c-8.316,1.12-9.994,6.12-9.806,13.322.417,16.168.131,32.344.131,48.512h-.074c0,16.487.336,32.981-.139,49.453C46.437,182.537,48.475,185.6,58.33,184.108Z" transform="translate(171.55 230.82)" fill="#fff"/>
      <path id="Path_9" data-name="Path 9" d="M268.439,128.464A734.792,734.792,0,0,0,139.264,87.721c-19.668-4.2-39.435-8.01-62.026-10.343,2.636,3.313,3.446,4.627,4.543,5.669q64.137,60.963,128.25,121.964c5.042,4.822,8.463,4.059,12.85-.482a407.524,407.524,0,0,0,50.28-62.977C277.737,134.406,275.781,131.513,268.439,128.464Z" transform="translate(391.232 368.968)" fill="#fff"/>
      <path id="Path_10" data-name="Path 10" d="M141.957,65.229a48.484,48.484,0,0,1-3.094-7.839c-1.31-5.607-5-7.411-10.657-7.349-13.726.14-27.452.047-41.178.039s-27.452.086-41.17-.062c-5.508-.054-9.192,1.384-11.025,6.929-14,42.407-16.583,85.9-13.873,129.873.172,2.831-.344,7.069,3.339,7.963,2.9.708,4.715-2.839,6.736-4.752q52.731-50.009,105.381-100.1C147.907,79,147.9,79,141.957,65.229Z" transform="translate(-20.003 183.539)" fill="#fff"/>
      <path id="Path_11" data-name="Path 11" d="M138.291,89.035c-.057-27.46-20.847-46.941-50.46-47.275-25.733-.288-49.208,22.1-49.486,47.205-.295,26.612,21.9,47.128,50.951,47.1C118.115,136.03,138.348,116.611,138.291,89.035Z" transform="translate(111.757 127.568)" fill="#fff"/>
      <path id="Path_12" data-name="Path 12" d="M62.891,111.789c11.205,13.524,22.656,17.926,39.4,8.376,5.934-3.391,8.848-6.043,8.692-12.451-.295-12.093-.082-24.194-.09-36.295,0-13.026-.123-26.06.041-39.086.1-6.945-2.185-8.135-8.6-4.612C78.172,40.989,56.621,57.46,36.175,75.37c-4.33,3.787-4.543,6.688-.139,10.654C45.269,94.353,55.066,102.348,62.891,111.789Z" transform="translate(72.151 19.416)" fill="#fff"/>
      <path id="Path_13" data-name="Path 13" d="M31.1,108.9c11.123-.078,22.247-.023,33.378-.008q8.336.012,16.689.008c5.558-.008,11.131.117,16.689-.054,8.079-.241,22.3-23.463,18.563-30.213a9.432,9.432,0,0,0-1.842-2.17C101.4,63.909,88.16,51.427,75.064,38.813c-3.691-3.562-6.491-3.134-9.617.614a312.347,312.347,0,0,0-40.073,61.795C22.263,107.514,25.16,108.945,31.1,108.9Z" transform="translate(9.493 91.031)" fill="#fff"/>
      <path id="Path_14" data-name="Path 14" d="M115.5,100.662c6.523-.272,9.544-2.5,9.4-8.842-.254-12.054.115-24.131-.393-36.17-.286-6.673-1.571-13.4-7.7-18.058-3.208,2.17-3.127,5.125-3.659,7.761A182.209,182.209,0,0,1,101.14,82.519C92.668,101.735,92.791,101.611,115.5,100.662Z" transform="translate(525.833 99.345)" fill="#fff"/>
    </g>
  </g>
</svg>
